<?xml version="1.0" encoding="UTF-8"?>
<svg id="Ebene_1" xmlns="http://www.w3.org/2000/svg" viewBox="0 0 24 18">
  <defs>
    <style>
      .cls-1 {
        fill: #fff;
      }
    </style>
  </defs>
  <path class="cls-1" d="M7,1c0-.55.45-1,1-1h15c.55,0,1,.45,1,1s-.45,1-1,1h-15c-.55,0-1-.45-1-1ZM23,8h-15c-.55,0-1,.45-1,1s.45,1,1,1h15c.55,0,1-.45,1-1s-.45-1-1-1ZM23,16h-15c-.55,0-1,.45-1,1s.45,1,1,1h15c.55,0,1-.45,1-1s-.45-1-1-1ZM3,0H1C.45,0,0,.45,0,1s.45,1,1,1h2c.55,0,1-.45,1-1s-.45-1-1-1ZM3,8H1c-.55,0-1,.45-1,1s.45,1,1,1h2c.55,0,1-.45,1-1s-.45-1-1-1ZM3,16H1c-.55,0-1,.45-1,1s.45,1,1,1h2c.55,0,1-.45,1-1s-.45-1-1-1Z"/>
</svg>