<?xml version="1.0" encoding="UTF-8"?>
<svg id="Ebene_1" xmlns="http://www.w3.org/2000/svg" viewBox="0 0 25.99 25.99">
  <defs>
    <style>
      .cls-1 {
        fill: #fff;
      }
    </style>
  </defs>
  <path class="cls-1" d="M24.64,13c1.65-1.47,1.79-4,.32-5.65-1.26-1.41-3.32-1.75-4.96-.81v-2.54C19.99,1.79,18.2,0,15.99,0c-1.15,0-2.24.49-3,1.35-1.47-1.65-4-1.79-5.65-.32-1.41,1.26-1.75,3.32-.81,4.96h-2.54C1.79,6,0,7.79,0,10c0,1.15.49,2.24,1.35,3-1.65,1.47-1.79,4-.32,5.65,1.26,1.41,3.32,1.75,4.96.81v2.54c0,2.21,1.8,4,4,4,1.15,0,2.24-.49,3-1.35,1.47,1.65,4,1.79,5.65.32,1.41-1.26,1.75-3.32.81-4.96h2.54c2.21,0,4-1.8,4-4,0-1.15-.49-2.24-1.35-3ZM6,16c0,1.1-.9,2-2,2s-2-.9-2-2,.9-2,2-2h2v2ZM12,22c0,1.1-.9,2-2,2s-2-.9-2-2v-6c0-1.1.9-2,2-2h2v8ZM12,12H4c-1.1,0-2-.9-2-2s.9-2,2-2h6c1.1,0,2,.9,2,2v2ZM12,6h-2c-1.1,0-2-.9-2-2s.9-2,2-2,2,.9,2,2v2ZM14,4c0-1.1.9-2,2-2s2,.9,2,2v6c0,1.1-.9,2-2,2h-2V4ZM16,24c-1.1,0-2-.9-2-2v-2h2c1.1,0,2,.9,2,2s-.9,2-2,2ZM22,18h-6c-1.1,0-2-.9-2-2v-2h8c1.1,0,2,.9,2,2s-.9,2-2,2ZM22,12h-2v-2c0-1.1.9-2,2-2s2,.9,2,2-.9,2-2,2Z"/>
</svg>